<svg width="40" height="39" viewBox="0 0 40 39" fill="none" xmlns="http://www.w3.org/2000/svg">
<g clip-path="url(#clip0)">
<path d="M20.0005 0C9.23093 0 0.500488 8.73044 0.500488 19.5C0.500488 30.2696 9.23093 39 20.0005 39C30.77 39 39.5005 30.2696 39.5005 19.5C39.5005 8.73044 30.77 0 20.0005 0ZM20.0005 6.60553C25.369 6.60553 29.7219 10.9585 29.7219 16.327C29.7219 17.9532 29.2763 20.0999 28.3603 21.3138L20.0005 32.3945L11.6406 21.3139C10.6322 19.9774 10.279 18.1224 10.279 16.327C10.2791 10.9585 14.632 6.60553 20.0005 6.60553ZM20.0005 12.2375C17.7416 12.2375 15.911 14.0681 15.911 16.327C15.911 18.5858 17.7416 20.4164 20.0005 20.4164C22.2593 20.4164 24.09 18.5858 24.09 16.327C24.09 14.0681 22.2593 12.2375 20.0005 12.2375Z" fill="#4197E5"/>
</g>
<defs>
<clipPath id="clip0">
<rect width="39" height="39" fill="white" transform="translate(0.500488)"/>
</clipPath>
</defs>
</svg>
