<svg width="24" height="24" viewBox="0 0 24 24" fill="none" xmlns="http://www.w3.org/2000/svg">
<path d="M12 6.375C12.2486 6.375 12.4871 6.47377 12.6629 6.64959C12.8387 6.8254 12.9375 7.06386 12.9375 7.3125V11.0625H16.6875C16.9361 11.0625 17.1746 11.1613 17.3504 11.3371C17.5262 11.5129 17.625 11.7514 17.625 12C17.625 12.2486 17.5262 12.4871 17.3504 12.6629C17.1746 12.8387 16.9361 12.9375 16.6875 12.9375H12.9375V16.6875C12.9375 16.9361 12.8387 17.1746 12.6629 17.3504C12.4871 17.5262 12.2486 17.625 12 17.625C11.7514 17.625 11.5129 17.5262 11.3371 17.3504C11.1613 17.1746 11.0625 16.9361 11.0625 16.6875V12.9375H7.3125C7.06386 12.9375 6.8254 12.8387 6.64959 12.6629C6.47377 12.4871 6.375 12.2486 6.375 12C6.375 11.7514 6.47377 11.5129 6.64959 11.3371C6.8254 11.1613 7.06386 11.0625 7.3125 11.0625H11.0625V7.3125C11.0625 7.06386 11.1613 6.8254 11.3371 6.64959C11.5129 6.47377 11.7514 6.375 12 6.375ZM0.75 12C0.75 10.5226 1.04099 9.05972 1.60636 7.69481C2.17172 6.3299 3.00039 5.08971 4.04505 4.04505C5.08971 3.00039 6.3299 2.17172 7.69481 1.60636C9.05972 1.04099 10.5226 0.75 12 0.75C13.4774 0.75 14.9403 1.04099 16.3052 1.60636C17.6701 2.17172 18.9103 3.00039 19.955 4.04505C20.9996 5.08971 21.8283 6.3299 22.3936 7.69481C22.959 9.05972 23.25 10.5226 23.25 12C23.25 14.9837 22.0647 17.8452 19.955 19.955C17.8452 22.0647 14.9837 23.25 12 23.25C9.01631 23.25 6.15483 22.0647 4.04505 19.955C1.93526 17.8452 0.75 14.9837 0.75 12ZM12 2.625C9.5136 2.625 7.12903 3.61272 5.37087 5.37087C3.61272 7.12903 2.625 9.5136 2.625 12C2.625 14.4864 3.61272 16.871 5.37087 18.6291C7.12903 20.3873 9.5136 21.375 12 21.375C14.4864 21.375 16.871 20.3873 18.6291 18.6291C20.3873 16.871 21.375 14.4864 21.375 12C21.375 9.5136 20.3873 7.12903 18.6291 5.37087C16.871 3.61272 14.4864 2.625 12 2.625Z" fill="#4197E5"/>
</svg>
