<svg width="30" height="30" viewBox="0 0 30 30" fill="none" xmlns="http://www.w3.org/2000/svg">
<g clip-path="url(#clip0)">
<path d="M10.0387 9.59812L14.1337 1.485C14.2124 1.32179 14.3353 1.18394 14.4884 1.08714C14.6416 0.990349 14.8188 0.9385 15 0.9375C15.3431 0.9375 15.6862 1.11938 15.8719 1.485L19.9669 9.59812L29.1506 10.9031C29.3795 10.9391 29.589 11.053 29.7437 11.2255C29.8985 11.3979 29.989 11.6185 30 11.85C30.0131 12.0041 29.9912 12.1592 29.936 12.3036C29.8808 12.4481 29.7937 12.5783 29.6812 12.6844L23.0756 18.9769L24.6319 27.8456C24.7781 28.6763 23.9569 29.3269 23.2331 28.9556L15 24.7256L6.7706 28.9556C6.68452 29.0003 6.59226 29.0319 6.49685 29.0494C5.8556 29.1619 5.24435 28.5731 5.37185 27.8456L6.9281 18.9769L0.324352 12.6844C0.221687 12.5872 0.140083 12.4701 0.0846051 12.3401C0.0291273 12.2101 0.000959935 12.0701 0.00185158 11.9288C0.0019491 11.7289 0.0570916 11.533 0.161227 11.3625C0.235099 11.2389 0.335787 11.1334 0.45586 11.0539C0.575933 10.9744 0.712327 10.9229 0.854977 10.9031L10.0387 9.59812ZM15 22.5506C15.1513 22.55 15.3006 22.586 15.435 22.6556L22.3462 26.2069L21.045 18.7875C21.0143 18.6169 21.0259 18.4413 21.0788 18.2762C21.1318 18.1111 21.2245 17.9615 21.3487 17.8406L26.7994 12.6469L19.2019 11.5669C19.0445 11.5431 18.8953 11.4816 18.767 11.3875C18.6386 11.2935 18.535 11.1697 18.465 11.0269L15.0019 4.16813L15 4.17375V22.5487V22.5506Z" fill="#F4B232"/>
</g>
<defs>
<clipPath id="clip0">
<rect width="30" height="30" fill="white"/>
</clipPath>
</defs>
</svg>
