<svg width="52" height="51" viewBox="0 0 52 51" fill="none" xmlns="http://www.w3.org/2000/svg">
<path d="M45.2557 41.795L37.889 34.45C40.2658 31.422 41.5555 27.6828 41.5507 23.8333C41.5507 20.4051 40.5341 17.0539 38.6295 14.2035C36.7249 11.353 34.0178 9.13135 30.8506 7.81943C27.6833 6.50751 24.1981 6.16425 20.8358 6.83306C17.4735 7.50187 14.385 9.15271 11.9609 11.5768C9.53675 14.0009 7.88591 17.0894 7.2171 20.4518C6.54829 23.8141 6.89154 27.2993 8.20346 30.4665C9.51538 33.6338 11.737 36.3409 14.5875 38.2455C17.4379 40.1501 20.7892 41.1667 24.2174 41.1667C28.0668 41.1715 31.806 39.8818 34.834 37.505L42.179 44.8717C42.3805 45.0748 42.6201 45.2359 42.8841 45.3459C43.1482 45.4559 43.4314 45.5126 43.7174 45.5126C44.0034 45.5126 44.2866 45.4559 44.5506 45.3459C44.8147 45.2359 45.0543 45.0748 45.2557 44.8717C45.4588 44.6703 45.62 44.4306 45.73 44.1666C45.84 43.9026 45.8966 43.6194 45.8966 43.3333C45.8966 43.0473 45.84 42.7641 45.73 42.5001C45.62 42.2361 45.4588 41.9964 45.2557 41.795ZM11.2174 23.8333C11.2174 21.2622 11.9798 18.7488 13.4083 16.6109C14.8367 14.4731 16.8671 12.8068 19.2425 11.8229C21.6179 10.839 24.2318 10.5815 26.7535 11.0831C29.2753 11.5847 31.5917 12.8229 33.4098 14.641C35.2278 16.459 36.466 18.7754 36.9676 21.2972C37.4692 23.8189 37.2118 26.4328 36.2278 28.8082C35.2439 31.1837 33.5776 33.214 31.4398 34.6424C29.302 36.0709 26.7885 36.8333 24.2174 36.8333C20.7696 36.8333 17.463 35.4637 15.025 33.0257C12.587 30.5878 11.2174 27.2812 11.2174 23.8333Z" fill="#4197E5"/>
</svg>
