<svg width="53" height="52" viewBox="0 0 53 52" fill="none" xmlns="http://www.w3.org/2000/svg">
<path d="M45.3717 41.795L38.005 34.45C40.3818 31.422 41.6715 27.6828 41.6667 23.8333C41.6667 20.4051 40.6501 17.0539 38.7455 14.2035C36.8409 11.353 34.1338 9.13135 30.9665 7.81943C27.7993 6.50751 24.3141 6.16425 20.9518 6.83306C17.5894 7.50187 14.5009 9.15271 12.0768 11.5768C9.65271 14.0009 8.00187 17.0894 7.33306 20.4518C6.66425 23.8141 7.00751 27.2993 8.31943 30.4665C9.63135 33.6338 11.853 36.3409 14.7035 38.2455C17.5539 40.1501 20.9051 41.1667 24.3333 41.1667C28.1828 41.1715 31.922 39.8818 34.95 37.505L42.295 44.8717C42.4964 45.0748 42.7361 45.2359 43.0001 45.3459C43.2641 45.4559 43.5473 45.5126 43.8333 45.5126C44.1194 45.5126 44.4026 45.4559 44.6666 45.3459C44.9306 45.2359 45.1703 45.0748 45.3717 44.8717C45.5748 44.6703 45.7359 44.4306 45.8459 44.1666C45.9559 43.9026 46.0126 43.6194 46.0126 43.3333C46.0126 43.0473 45.9559 42.7641 45.8459 42.5001C45.7359 42.2361 45.5748 41.9964 45.3717 41.795ZM11.3333 23.8333C11.3333 21.2622 12.0958 18.7488 13.5242 16.6109C14.9527 14.4731 16.983 12.8068 19.3585 11.8229C21.7339 10.839 24.3478 10.5815 26.8695 11.0831C29.3913 11.5847 31.7076 12.8229 33.5257 14.641C35.3438 16.459 36.5819 18.7754 37.0836 21.2972C37.5852 23.8189 37.3277 26.4328 36.3438 28.8082C35.3598 31.1837 33.6936 33.214 31.5558 34.6424C29.4179 36.0709 26.9045 36.8333 24.3333 36.8333C20.8855 36.8333 17.5789 35.4637 15.141 33.0257C12.703 30.5878 11.3333 27.2812 11.3333 23.8333Z" fill="#4197E5"/>
</svg>
