<svg width="31" height="30" viewBox="0 0 31 30" fill="none" xmlns="http://www.w3.org/2000/svg">
<g clip-path="url(#clip0)">
<path d="M5.87379 27.8438C5.72754 28.6763 6.54879 29.3269 7.27254 28.9556L15.5038 24.7256L23.7332 28.9556C24.4569 29.3269 25.2782 28.6763 25.1319 27.8456L23.5757 18.9769L30.1794 12.6844C30.7982 12.0956 30.4794 11.0194 29.6507 10.9031L20.4669 9.59813L16.3719 1.48501C16.2939 1.32055 16.1708 1.1816 16.017 1.08431C15.8632 0.987012 15.6849 0.935364 15.5029 0.935364C15.3208 0.935364 15.1425 0.987012 14.9887 1.08431C14.8349 1.1816 14.7118 1.32055 14.6338 1.48501L10.5388 9.60001L1.35504 10.905C0.528164 11.0213 0.207539 12.0975 0.824414 12.6863L7.43004 18.9788L5.87379 27.8475V27.8438ZM15.0707 22.6556L8.15941 26.2069L9.46066 18.7875C9.49115 18.6167 9.47922 18.4411 9.42593 18.276C9.37264 18.1109 9.27962 17.9614 9.15504 17.8406L3.70629 12.6469L11.3038 11.5669C11.4611 11.5431 11.6103 11.4816 11.7387 11.3875C11.867 11.2935 11.9706 11.1697 12.0407 11.0269L15.5 4.16813L18.9632 11.0269C19.0332 11.1697 19.1368 11.2935 19.2652 11.3875C19.3935 11.4816 19.5427 11.5431 19.7 11.5669L27.2975 12.645L21.8488 17.8388C21.7239 17.9597 21.6307 18.1095 21.5774 18.2749C21.5241 18.4404 21.5124 18.6164 21.5432 18.7875L22.8444 26.2069L15.9332 22.6556C15.7995 22.5867 15.6513 22.5508 15.501 22.5508C15.3506 22.5508 15.2024 22.5867 15.0688 22.6556H15.0707Z" fill="#F4B232"/>
</g>
<defs>
<clipPath id="clip0">
<rect width="30" height="30" fill="white" transform="translate(0.5)"/>
</clipPath>
</defs>
</svg>
