<svg width="118" height="120" viewBox="0 0 118 120" fill="none" xmlns="http://www.w3.org/2000/svg">
<mask id="path-1-inside-1" fill="white">
<rect x="0.210281" width="117.118" height="119.193" rx="8"/>
</mask>
<rect x="0.210281" width="117.118" height="119.193" rx="8" stroke="white" stroke-width="18" mask="url(#path-1-inside-1)"/>
<path d="M58.4998 27.5C40.5598 27.5 25.9998 42.06 25.9998 60C25.9998 77.94 40.5598 92.5 58.4998 92.5C76.4398 92.5 90.9998 77.94 90.9998 60C90.9998 42.06 76.4398 27.5 58.4998 27.5ZM58.4998 76.25C56.7123 76.25 55.2498 74.7875 55.2498 73V60C55.2498 58.2125 56.7123 56.75 58.4998 56.75C60.2873 56.75 61.7498 58.2125 61.7498 60V73C61.7498 74.7875 60.2873 76.25 58.4998 76.25ZM58.4998 50.25C56.7123 50.25 55.2498 48.7875 55.2498 47C55.2498 45.2125 56.7123 43.75 58.4998 43.75C60.2873 43.75 61.7498 45.2125 61.7498 47C61.7498 48.7875 60.2873 50.25 58.4998 50.25Z" fill="white"/>
</svg>
