<svg width="118" height="120" viewBox="0 0 118 120" fill="none" xmlns="http://www.w3.org/2000/svg">
<mask id="path-1-inside-1" fill="white">
<rect x="0.697632" y="0.620605" width="117.118" height="119.193" rx="8"/>
</mask>
<rect x="0.697632" y="0.620605" width="117.118" height="119.193" rx="8" stroke="white" stroke-width="18" mask="url(#path-1-inside-1)"/>
<path d="M77.4871 75.9547L78.4371 77.2206C78.5694 77.397 78.65 77.6068 78.6698 77.8265C78.6896 78.0461 78.6478 78.2669 78.5492 78.4642C78.4506 78.6614 78.299 78.8273 78.1114 78.9433C77.9238 79.0592 77.7076 79.1206 77.4871 79.1206H39.4871C39.2665 79.1206 39.0504 79.0592 38.8628 78.9433C38.6752 78.8273 38.5236 78.6614 38.4249 78.4642C38.3263 78.2669 38.2846 78.0461 38.3044 77.8265C38.3242 77.6068 38.4047 77.397 38.5371 77.2206L39.4871 75.9547V55.3706C39.4871 50.3315 41.4888 45.4988 45.052 41.9356C48.6152 38.3724 53.4479 36.3706 58.4871 36.3706C63.5262 36.3706 68.3589 38.3724 71.9221 41.9356C75.4853 45.4988 77.4871 50.3315 77.4871 55.3706V75.9547ZM52.5496 81.4956H64.4246C64.4246 83.0703 63.799 84.5806 62.6855 85.6941C61.572 86.8075 60.0618 87.4331 58.4871 87.4331C56.9123 87.4331 55.4021 86.8075 54.2886 85.6941C53.1751 84.5806 52.5496 83.0703 52.5496 81.4956Z" fill="white"/>
</svg>
