<svg width="118" height="120" viewBox="0 0 118 120" fill="none" xmlns="http://www.w3.org/2000/svg">
<mask id="path-1-inside-1" fill="white">
<rect x="0.210281" width="117.118" height="119.193" rx="8"/>
</mask>
<rect x="0.210281" width="117.118" height="119.193" rx="8" stroke="white" stroke-width="18" mask="url(#path-1-inside-1)"/>
<path d="M55.0997 34.0501L38.0998 46.8001C36.6831 47.8767 35.8331 49.5484 35.8331 51.3334V76.8334C35.8331 79.9501 38.3831 82.5001 41.4998 82.5001H75.4997C78.6164 82.5001 81.1664 79.9501 81.1664 76.8334V51.3334C81.1664 49.5484 80.3164 47.8767 78.8997 46.8001L61.8997 34.0501C60.917 33.3187 59.7247 32.9238 58.4997 32.9238C57.2748 32.9238 56.0825 33.3187 55.0997 34.0501ZM59.9164 58.4167C59.9164 60.7684 58.0181 62.6667 55.6664 62.6667V72.5834C55.6664 73.3767 55.0431 74.0001 54.2497 74.0001C53.4564 74.0001 52.8331 73.3767 52.8331 72.5834V62.6667C50.4814 62.6667 48.5831 60.7684 48.5831 58.4167V51.3334C48.5831 50.5401 49.2064 49.9167 49.9997 49.9167C50.7931 49.9167 51.4164 50.5401 51.4164 51.3334V58.4167H52.8331V51.3334C52.8331 50.5401 53.4564 49.9167 54.2497 49.9167C55.0431 49.9167 55.6664 50.5401 55.6664 51.3334V58.4167H57.0831V51.3334C57.0831 50.5401 57.7064 49.9167 58.4997 49.9167C59.2931 49.9167 59.9164 50.5401 59.9164 51.3334V58.4167ZM65.5831 74.0001C64.7897 74.0001 64.1664 73.3767 64.1664 72.5834V64.0834H62.7497C61.9564 64.0834 61.3331 63.4601 61.3331 62.6667V55.5834C61.3331 53.0901 62.9481 50.9651 65.1864 50.2284C66.0647 49.9167 66.9997 50.6251 66.9997 51.5884V72.5834C66.9997 73.3767 66.3764 74.0001 65.5831 74.0001Z" fill="white"/>
</svg>
