<svg width="71" height="63" viewBox="0 0 71 63" fill="none" xmlns="http://www.w3.org/2000/svg">
<path d="M10.6394 43.3798H12.8191L8.31909 56.2294H6.10425L1.62183 43.3798H3.78394L6.4646 51.369C6.60522 51.7499 6.75464 52.2421 6.91284 52.8456C7.07104 53.4432 7.17358 53.8885 7.22046 54.1815C7.29663 53.7362 7.41382 53.2206 7.57202 52.6346C7.73022 52.0487 7.85913 51.6151 7.95874 51.3339L10.6394 43.3798ZM25.9236 49.787C25.9236 51.8788 25.3992 53.5048 24.3503 54.6649C23.3074 55.8251 21.8279 56.4052 19.9119 56.4052C17.9724 56.4052 16.4812 55.8309 15.4382 54.6825C14.4011 53.5282 13.8826 51.8905 13.8826 49.7694C13.8826 47.6483 14.4041 46.0194 15.447 44.8827C16.4958 43.746 17.99 43.1776 19.9294 43.1776C21.8396 43.1776 23.3162 43.7548 24.3591 44.9091C25.4021 46.0634 25.9236 47.6893 25.9236 49.787ZM16.115 49.787C16.115 51.369 16.4343 52.5702 17.073 53.3905C17.7117 54.205 18.658 54.6122 19.9119 54.6122C21.1599 54.6122 22.1003 54.2079 22.7332 53.3993C23.3718 52.5907 23.6912 51.3866 23.6912 49.787C23.6912 48.2108 23.3748 47.0155 22.7419 46.201C22.115 45.3866 21.1775 44.9794 19.9294 44.9794C18.6697 44.9794 17.7175 45.3866 17.073 46.201C16.4343 47.0155 16.115 48.2108 16.115 49.787ZM28.6833 56.2294V43.3798H30.7839V54.4276H36.2244V56.2294H28.6833ZM42.8777 56.2294H40.7771V45.1815H36.9978V43.3798H46.657V45.1815H42.8777V56.2294ZM56.6062 56.2294L55.323 52.661H50.4099L49.1531 56.2294H46.9382L51.7458 43.327H54.031L58.8386 56.2294H56.6062ZM54.7693 50.8505L53.5652 47.3524C53.4773 47.118 53.3542 46.7489 53.196 46.245C53.0437 45.7411 52.9382 45.3719 52.8796 45.1376C52.7214 45.8583 52.49 46.6464 52.1853 47.5018L51.0251 50.8505H54.7693ZM62.6355 49.3563H64.0945C65.073 49.3563 65.782 49.1747 66.2214 48.8114C66.6609 48.4481 66.8806 47.9091 66.8806 47.1942C66.8806 46.4677 66.6433 45.9462 66.1687 45.6298C65.6941 45.3134 64.9792 45.1552 64.0242 45.1552H62.6355V49.3563ZM62.6355 51.0966V56.2294H60.5349V43.3798H64.1648C65.823 43.3798 67.0505 43.6903 67.8474 44.3114C68.6443 44.9325 69.0427 45.87 69.0427 47.1239C69.0427 48.7235 68.2107 49.8632 66.5466 50.5428L70.1765 56.2294H67.7859L64.7097 51.0966H62.6355Z" fill="#4197E5"/>
<path d="M33.9053 32.8765L23.3728 22.344C21.5904 20.5616 21.5904 17.6449 23.3728 15.8624L33.9053 5.32996C35.2502 3.98505 37.4215 3.98505 38.7664 5.32996C40.1113 6.67488 40.1113 8.84619 38.7664 10.1911L33.4678 15.4898L52.4586 15.7814C54.2735 15.8138 55.7318 17.3046 55.7318 19.1194C55.7318 20.9342 54.2573 22.4088 52.4424 22.4412L33.3381 22.587L38.7664 28.0153C40.1113 29.3602 40.1113 31.5315 38.7664 32.8765C37.4215 34.2214 35.2502 34.2214 33.9053 32.8765Z" fill="#4197E5"/>
</svg>
