<svg width="118" height="120" viewBox="0 0 118 120" fill="none" xmlns="http://www.w3.org/2000/svg">
<path d="M58.9998 49.375C53.512 49.375 48.8748 54.0122 48.8748 59.5C48.8748 64.9878 53.512 69.625 58.9998 69.625C64.4875 69.625 69.1248 64.9878 69.1248 59.5C69.1248 54.0122 64.4875 49.375 58.9998 49.375Z" fill="white"/>
<path d="M85.9998 35.875H77.272L68.1359 26.7389C67.823 26.4249 67.4511 26.1758 67.0416 26.0061C66.6321 25.8364 66.193 25.7494 65.7498 25.75H52.2498C51.8065 25.7494 51.3674 25.8364 50.9579 26.0061C50.5484 26.1758 50.1765 26.4249 49.8636 26.7389L40.7275 35.875H31.9998C28.2771 35.875 25.2498 38.9024 25.2498 42.625V79.75C25.2498 83.4726 28.2771 86.5 31.9998 86.5H85.9998C89.7224 86.5 92.7498 83.4726 92.7498 79.75V42.625C92.7498 38.9024 89.7224 35.875 85.9998 35.875ZM58.9998 76.375C49.8535 76.375 42.1248 68.6463 42.1248 59.5C42.1248 50.3538 49.8535 42.625 58.9998 42.625C68.146 42.625 75.8748 50.3538 75.8748 59.5C75.8748 68.6463 68.146 76.375 58.9998 76.375Z" fill="white"/>
<mask id="path-3-inside-1" fill="white">
<rect x="0.210281" width="117.118" height="119.193" rx="8"/>
</mask>
<rect x="0.210281" width="117.118" height="119.193" rx="8" stroke="white" stroke-width="18" mask="url(#path-3-inside-1)"/>
</svg>
