<svg width="118" height="120" viewBox="0 0 118 120" fill="none" xmlns="http://www.w3.org/2000/svg">
<path d="M86.779 18.8491H78.7895C77.73 18.8491 76.7139 19.2774 75.9648 20.0399C75.2156 20.8023 74.7948 21.8364 74.7948 22.9146V91.9955H90.7737V22.9146C90.7737 21.8364 90.3528 20.8023 89.6037 20.0399C88.8545 19.2774 87.8384 18.8491 86.779 18.8491ZM62.8105 43.2421H54.8211C53.7616 43.2421 52.7455 43.6704 51.9964 44.4329C51.2472 45.1953 50.8263 46.2294 50.8263 47.3076V91.9955H66.8053V47.3076C66.8053 46.2294 66.3844 45.1953 65.6352 44.4329C64.8861 43.6704 63.87 43.2421 62.8105 43.2421ZM38.8421 67.6351H30.8526C29.7932 67.6351 28.7771 68.0634 28.0279 68.8258C27.2788 69.5883 26.8579 70.6223 26.8579 71.7006V91.9955H42.8369V71.7006C42.8369 70.6223 42.416 69.5883 41.6668 68.8258C40.9177 68.0634 39.9016 67.6351 38.8421 67.6351Z" fill="white"/>
<mask id="path-2-inside-1" fill="white">
<rect x="0.710571" width="117.118" height="119.193" rx="8"/>
</mask>
<rect x="0.710571" width="117.118" height="119.193" rx="8" stroke="white" stroke-width="18" mask="url(#path-2-inside-1)"/>
</svg>
