<svg width="49" height="47" viewBox="0 0 49 47" fill="none" xmlns="http://www.w3.org/2000/svg">
<path d="M40.6699 24.6992L22.971 7.01327C22.8436 6.88558 22.6922 6.78428 22.5256 6.71517C22.359 6.64605 22.1803 6.61047 22 6.61047C21.8196 6.61047 21.6409 6.64605 21.4743 6.71517C21.3077 6.78428 21.1563 6.88558 21.0289 7.01327L3.33003 24.6992C2.8144 25.2148 2.52222 25.9152 2.52222 26.6457C2.52222 28.1625 3.75542 29.3957 5.27222 29.3957H7.13706V42.0156C7.13706 42.7762 7.75151 43.3906 8.51206 43.3906H19.25V33.7656H24.0625V43.3906H35.4878C36.2484 43.3906 36.8628 42.7762 36.8628 42.0156V29.3957H38.7277C39.4582 29.3957 40.1585 29.1078 40.6742 28.5879C41.7441 27.5137 41.7441 25.7734 40.6699 24.6992Z" fill="white"/>
<path d="M47.57 12.86L49 11.43L47.57 10L44 13.57L35.43 5L39 1.43L37.57 0L36.14 1.43L34.71 0L32.57 2.14L31.14 0.71L29.71 2.14L31.14 3.57L29 5.71L30.43 7.14L29 8.57L30.43 10L34 6.43L42.57 15L39 18.57L40.43 20L41.86 18.57L43.29 20L45.43 17.86L46.86 19.29L48.29 17.86L46.86 16.43L49 14.29L47.57 12.86Z" fill="white"/>
</svg>
